# xmcd CD database file
#
# Track frame offsets:
#	150
#	15971
#	35282
#	52394
#	66944
#	80920
#	96845
#	111716
#	132279
#	154512
#
# Disc length: 2229 seconds
#
# Revision: 13
# Processed by: cddbd v1.5.2PL0 Copyright (c) Steve Scherf et al.
# Submitted via: CDex 2.09
#
DISCID=8808b30a
DTITLE=Sting - 57th and 9th
DYEAR=2016
DGENRE=Rock
TTITLE0=I can't stop thinking about you
TTITLE1=50,000
TTITLE2=Down, down, down
TTITLE3=One fine day
TTITLE4=Pretty young soldier
TTITLE5=Petrol head
TTITLE6=Heading south on the great north road
TTITLE7=If you can't love me
TTITLE8=Inshallah
TTITLE9=The empty chair
EXTD=YEAR: 2016
EXTT0=
EXTT1=
EXTT2=
EXTT3=
EXTT4=
EXTT5=
EXTT6=
EXTT7=
EXTT8=
EXTT9=
PLAYORDER=
